<?xml version="1.0" encoding="iso-8859-1"?>
<!-- Uploaded to: SVG Repo, www.svgrepo.com, Generator: SVG Repo Mixer Tools -->
<svg version="1.1" id="Layer_1" xmlns="http://www.w3.org/2000/svg" xmlns:xlink="http://www.w3.org/1999/xlink" 
	 viewBox="0 0 512 512" xml:space="preserve">
<path style="fill:#00B4D7;" d="M369.977,258.374h66.486V419.84H203.761c16.622,16.622,33.243,33.243,33.243,33.243l-47.49,47.49
	L75.537,386.598l113.977-113.977l47.49,47.49l-33.243,33.243h166.216V258.374z"/>
<path style="fill:#0093C4;" d="M403.22,386.598H75.537l113.977,113.977l47.49-47.49c0,0-16.622-16.622-33.243-33.243h232.702
	V258.374H403.22L403.22,386.598L403.22,386.598z"/>
<path d="M189.514,512L64.112,386.598l125.403-125.402l58.916,58.916l-25.164,25.164h138.631v-94.981h82.645v177.626H223.265
	l25.164,25.164L189.514,512z M86.963,386.598l102.552,102.551l36.064-36.064l-41.322-41.322h244.127V266.453h-50.328v94.981h-193.8
	l41.322-41.322l-36.064-36.064L86.963,386.598z"/>
<rect x="103.52" y="414.13" transform="matrix(-0.7071 -0.7071 0.7071 -0.7071 -35.8396 829.5732)" style="fill:#FFFFFF;" width="100.741" height="16.158"/>
<path style="fill:#00B4D7;" d="M142.023,253.626H75.537V92.159h232.702c-16.622-16.622-33.243-33.243-33.243-33.243l47.49-47.49
	l113.977,113.977L322.486,239.378l-47.49-47.49l33.243-33.243H142.023L142.023,253.626L142.023,253.626z"/>
<path style="fill:#0093C4;" d="M108.78,125.402h327.683L322.486,11.425l-47.49,47.49c0,0,16.622,16.622,33.243,33.243H75.537
	v161.466h33.243V125.402z"/>
<path d="M150.102,261.705H67.458V84.079h221.277l-25.164-25.164L322.486,0l125.402,125.402L322.486,250.803l-58.916-58.915
	l25.164-25.164H150.102V261.705z M83.616,245.547h50.328v-94.981h193.8l-41.322,41.322l36.064,36.064l102.551-102.551
	L322.486,22.851l-36.064,36.064l41.322,41.322H83.616V245.547z"/>
<rect x="307.726" y="81.704" transform="matrix(-0.7071 -0.7071 0.7071 -0.7071 547.8236 406.4818)" style="fill:#FFFFFF;" width="100.741" height="16.158"/>
</svg>