<?xml version="1.0" encoding="utf-8"?><!-- Uploaded to: SVG Repo, www.svgrepo.com, Generator: SVG Repo Mixer Tools -->
<svg fill="#000000" width="800px" height="800px" viewBox="0 0 24 24" id="update-alt-2" data-name="Flat Color" xmlns="http://www.w3.org/2000/svg" class="icon flat-color"><path id="primary" d="M21.71,10.29a1,1,0,0,0-1.42,0L19,11.59V7a3,3,0,0,0-3-3H6A1,1,0,0,0,6,6H16a1,1,0,0,1,1,1v4.59l-1.29-1.3a1,1,0,0,0-1.42,1.42l3,3a1,1,0,0,0,1.42,0l3-3A1,1,0,0,0,21.71,10.29Z" style="fill: rgb(0, 0, 0);"></path><path id="secondary" d="M18,18H8a1,1,0,0,1-1-1V12.41l1.29,1.3a1,1,0,0,0,1.42,0,1,1,0,0,0,0-1.42l-3-3a1,1,0,0,0-1.42,0l-3,3a1,1,0,0,0,1.42,1.42L5,12.41V17a3,3,0,0,0,3,3H18a1,1,0,0,0,0-2Z" style="fill: rgb(44, 169, 188);"></path></svg>